<svg height="512pt" viewBox="0 0 512.00045 512" width="512pt" xmlns="http://www.w3.org/2000/svg"><path d="m341.207031 231.835938c9.671875-2.707032 19.699219-4.519532 30-5.339844 4.179688-.328125 8.402344-.5 12.660157-.5 2.832031 0 5.699218.070312 8.53125.222656 1.5.078125 3 .179688 4.488281.300781 10.230469.839844 20.25 2.628907 30 5.378907v-61.667969h44.128906l-43.519531-85.121094-.609375-1.199219-42.890625-83.910156-42.789063 83.691406-.71875 1.417969-43.511719 85.117187h44.230469zm0 0"/><path d="m390.796875 256.175781c-70.589844-3.757812-130.847656 50.410157-134.617187 121-3.75 70.601563 50.410156 130.867188 121.019531 134.636719 70.578125 3.75 130.847656-50.425781 134.617187-121.015625 3.75-70.589844-50.417968-130.847656-121.019531-134.621094zm19.820313 196.300781h-11.621094v20.109376h-30v-20.109376h-38.359375v-30h79.980469c6.46875 0 11.742187-5.269531 11.742187-11.742187 0-6.480469-5.273437-11.738281-11.742187-11.738281h-53.238282c-23.011718 0-41.742187-18.730469-41.742187-41.738282 0-23.023437 18.730469-41.742187 41.742187-41.742187h11.6875v-20.199219h30v20.199219h38.289063v30h-79.976563c-6.472656 0-11.742187 5.261719-11.742187 11.742187 0 6.46875 5.269531 11.738282 11.742187 11.738282h53.238282c23.011718 0 41.738281 18.71875 41.738281 41.738281 0 23.011719-18.726563 41.742187-41.738281 41.742187zm0 0"/><path d="m170.667969 280.179688c-9.667969 2.699218-19.699219 4.5-30 5.308593-4.140625.332031-8.328125.5-12.558594.5-2.820313 0-5.691406-.078125-8.519531-.230469-1.421875-.070312-2.839844-.167968-4.261719-.277343-10.230469-.820313-20.25-2.589844-30-5.320313v61.609375h-43.949219l43.339844 85.117188.609375 1.203125 42.722656 83.910156 42.617188-83.691406.722656-1.421875 43.328125-85.117188h-44.050781zm0 0"/><path d="m95.320312 245.65625v4.542969c10.539063 2.996093 21.476563 4.507812 32.679688 4.507812 11.210938 0 22.144531-1.511719 32.679688-4.511719v-4.539062c0-18.019531-14.660157-32.679688-32.679688-32.679688s-32.679688 14.660157-32.679688 32.679688zm0 0"/><path d="m154.269531 135.371094c0 14.507812-11.761719 26.269531-26.269531 26.269531s-26.269531-11.761719-26.269531-26.269531c0-14.507813 11.761719-26.269532 26.269531-26.269532s26.269531 11.761719 26.269531 26.269532zm0 0"/><path d="m134.804688.183594c-70.589844-3.761719-130.855469 50.414062-134.621094 121-2.6875 50.390625 24.160156 95.523437 65.421875 118.59375 2.253906-24.210938 18.269531-44.417969 40.15625-52.726563-19.996094-8.640625-34.03125-28.546875-34.03125-51.679687 0-31.027344 25.242187-56.269532 56.269531-56.269532s56.269531 25.242188 56.269531 56.269532c0 23.132812-14.035156 43.039062-34.03125 51.679687 21.878907 8.308594 37.898438 28.507813 40.15625 52.707031 37.054688-20.726562 62.996094-59.421874 65.421875-104.953124 3.753906-70.585938-50.425781-130.871094-121.011718-134.621094zm0 0"/></svg>