<?xml version="1.0"?>
<svg xmlns="http://www.w3.org/2000/svg" viewBox="0 0 64 64" width="512" height="512"><path d="m39.43 46-21.41 2h-.01l-3-2h-7.01v10h4.01l9.04 5 19.16-12.13a1.53932 1.53932 0 0 0 -.78-2.87z" fill="#dbe6fd"/><path d="m4 45h4v12h-4z" fill="#5358a1"/><path d="m55.46582 10h-.84534a4.00006 4.00006 0 1 0 -5.241 0h-.84534a5.53416 5.53416 0 0 0 -5.53414 5.53418v9.46582h4v14h10v-14h4v-9.46582a5.53416 5.53416 0 0 0 -5.53418-5.53418z" fill="#f4393d"/><path d="m10 22.62131v15.5659l5.0931-.5659a8.8594 8.8594 0 0 1 6.89149 1.82036 9.05319 9.05319 0 0 0 8.98559 1.63443l6.02982-2.19265v-15.26214l-6.02981 2.19269a9.05319 9.05319 0 0 1 -8.98559-1.63443 9.0532 9.0532 0 0 0 -6.89149-2.12412z" fill="#24db6a"/><path d="m36.5196 29.78159.4804-.16013v-6l-6 2.18182a4.1935 4.1935 0 0 0 5.5196 3.97831z" fill="#17afdc"/><path d="m10.40839 28.17865a6.20946 6.20946 0 0 0 5.59161-6.17865 9.05191 9.05191 0 0 0 -.90692.05359l-5.09308.56592v5.6z" fill="#17afdc"/><path d="m10 38.09755 5.09308-.56586q.45392-.05044.90692-.06629a4.465 4.465 0 0 0 -4.90923-4.44281l-1.09077.10907z" fill="#17afdc"/><path d="m37 39.06213v-5.06213l-.78562.23569a7.31682 7.31682 0 0 0 -5.21438 7.00831z" fill="#17afdc"/><path d="m23.5625 36.999a2.483 2.483 0 0 1 -.90918-.17187l-2.01855-.793.73046-1.86133 2.01954.793a.47879.47879 0 0 0 .3955-.01855.43135.43135 0 0 0 .22657-.2793.42342.42342 0 0 0 -.26856-.5l-1.208-.47461a2.42244 2.42244 0 0 1 -.22363-4.41992 2.47642 2.47642 0 0 1 2.04-.10059l2.01855.793-.73046 1.86133-2.01954-.793a.46578.46578 0 0 0 -.3955.01855.43135.43135 0 0 0 -.22657.2793.42342.42342 0 0 0 .26856.5l1.208.47461a2.42244 2.42244 0 0 1 .22363 4.41992 2.47494 2.47494 0 0 1 -1.13082.27246z"/><path d="m37.57324 23.18066a.99537.99537 0 0 0 -.915-.12011l-6.03027 2.19238a8.068 8.068 0 0 1 -7.99219-1.45313 10.07768 10.07768 0 0 0 -7.65332-2.35937l-5.09277.56543a1.0001 1.0001 0 0 0 -.88969.99414v15.56543a1.00029 1.00029 0 0 0 1.11035.99414l5.09278-.56543a7.94884 7.94884 0 0 1 6.13087 1.58594 10.06576 10.06576 0 0 0 9.97754 1.81445l6.03028-2.19336a.99854.99854 0 0 0 .65818-.93945v-15.26172a1.00044 1.00044 0 0 0 -.42676-.81934zm-1.57324 6.02112a2.52266 2.52266 0 0 1 -1.78125-.443 3.089 3.089 0 0 1 -1.17706-2.2558l2.95831-1.07525zm-21.13281-5.73578a6.24708 6.24708 0 0 1 -3.86719 4.28723v-3.85772zm-3.86719 11.03925.19043-.01892a3.43461 3.43461 0 0 1 3.67407 2.53267l-3.8645.42924zm11.63574 4.55627a9.17986 9.17986 0 0 0 -5.73274-2.11987 5.451 5.451 0 0 0 -5.903-4.44592v-2.66339a8.18724 8.18724 0 0 0 5.90668-6.40949 8.07422 8.07422 0 0 1 4.4273 1.89551 10.058 10.058 0 0 0 9.77277 1.8728 4.97587 4.97587 0 0 0 1.94208 3.19068 4.42979 4.42979 0 0 0 2.62109.84375c.10858 0 .22022-.02045.33008-.028v2.25824l-.07227.02167a8.24119 8.24119 0 0 0 -5.86633 7.2016 8.05361 8.05361 0 0 1 -7.42566-1.61758zm9.56171.88318a6.23586 6.23586 0 0 1 3.80255-4.35559v2.97241z"/><g fill="#fccc38"><path d="m23 12h2v4h-2z"/><path d="m33.37868 16.50011h4.24264v1.99979h-4.24264z" transform="matrix(.70710678 -.70710678 .70710678 .70710678 -1.97666 30.22792)"/><path d="m27.76393 13.99988h4.47214v2.00023h-4.47214z" transform="matrix(.44721358 -.8944272 .8944272 .44721358 3.16718 35.12461)"/><path d="m11.50011 15.37868h1.99979v4.24264h-1.99979z" transform="matrix(.70710678 -.70710678 .70710678 .70710678 -8.7132 13.96447)"/><path d="m16.99988 12.76393h2.00023v4.47214h-2.00023z" transform="matrix(.8944272 -.44721358 .44721358 .8944272 -4.80789 9.63344)"/></g><path d="m56.53418 9.08691a4.92442 4.92442 0 0 0 .46582-2.08691 5 5 0 0 0 -10 0 4.92442 4.92442 0 0 0 .46582 2.08691 6.5453 6.5453 0 0 0 -5.46582 6.44727v9.46582a.99943.99943 0 0 0 1 1h3v13a.99943.99943 0 0 0 1 1h10a.99943.99943 0 0 0 1-1v-13h3a.99943.99943 0 0 0 1-1v-9.46582a6.5453 6.5453 0 0 0 -5.46582-6.44727zm3.46582 14.91309h-2v-10h-2v24h-3v-14h-2v14h-3v-24h-2v10h-2v-8.46582a4.53951 4.53951 0 0 1 4.53418-4.53418h.8457a.99987.99987 0 0 0 .65821-1.75293 2.95493 2.95493 0 0 1 -1.03809-2.24707 3 3 0 0 1 6 0 2.95493 2.95493 0 0 1 -1.03809 2.24707.99987.99987 0 0 0 .65821 1.75293h.8457a4.53951 4.53951 0 0 1 4.53418 4.53418z"/><path d="m41.88867 46.88086a2.53836 2.53836 0 0 0 -2.541-1.877h-.01075l-21.06153 1.97173-2.65332-1.76954a1.016 1.016 0 0 0 -.6123-.206h-6.00977a.99943.99943 0 0 0 -1-1h-4a.99943.99943 0 0 0 -1 1v11.99995a.99943.99943 0 0 0 1 1h4a.99943.99943 0 0 0 1-1h2.752l8.81348 4.875a1.00039 1.00039 0 0 0 1.01953-.03027l19.127-12.11035a2.50929 2.50929 0 0 0 1.17666-2.85352zm-34.88867 9.11914h-2v-10h2zm32.6748-7.97461-18.65917 11.8125-8.52149-4.71289a1.0024 1.0024 0 0 0 -.48437-.125h-3.00977v-8h5.707l6.583 4.375a1.47571 1.47571 0 0 1 .3623 2.13281 1.55181 1.55181 0 0 1 -2.03906.34961l-4.04976-2.69042-1.10743 1.666 4.05958 2.69629a3.50477 3.50477 0 0 0 4.73242-.81543 3.47676 3.47676 0 0 0 -.8545-5.00684l-1.46575-.97455 18.50189-1.73247a.51586.51586 0 0 1 .52734.40137.52752.52752 0 0 1 -.28223.62402z"/></svg>
